<?xml version="1.0"?>
<svg xmlns="http://www.w3.org/2000/svg" width="180" height="90" viewBox="0 0 180 90" fill="none">
<g filter="url(#filter0_d)">
<path d="M4 6.90476C4 4.74822 5.75016 3 7.90909 3H172.091C174.25 3 176 4.74822 176 6.90476V81.0952C176 83.2518 174.25 85 172.091 85H7.90909C5.75016 85 4 83.2518 4 81.0952V6.90476Z" fill="white"/>
</g>
<path d="M4 6.90476C4 4.74822 5.75016 3 7.90909 3H172.091C174.25 3 176 4.74822 176 6.90476V29.3571H4V6.90476Z" fill="#3F98F9"/>
<path d="M73.4412 17.1744V20.5715H72.3623V12.1841H75.2238C75.9509 12.1841 76.5685 12.4262 77.0767 12.9104C77.5927 13.3946 77.8507 13.9842 77.8507 14.6792C77.8507 15.3899 77.5927 15.9834 77.0767 16.4598C76.5763 16.9362 75.9587 17.1744 75.2238 17.1744H73.4412ZM73.4412 13.2149V16.1435H75.2472C75.6772 16.1435 76.0329 15.999 76.3144 15.7101C76.6037 15.4211 76.7483 15.0775 76.7483 14.6792C76.7483 14.2887 76.6037 13.949 76.3144 13.6601C76.0329 13.3633 75.6772 13.2149 75.2472 13.2149H73.4412Z" fill="white"/>
<path d="M79.3508 18.8144C79.3508 19.0955 79.4681 19.3298 79.7027 19.5172C79.945 19.7047 80.2265 19.7984 80.547 19.7984C81.0005 19.7984 81.4031 19.6305 81.7549 19.2947C82.1146 18.9588 82.2944 18.5645 82.2944 18.1115C81.9582 17.846 81.4891 17.7132 80.8871 17.7132C80.4493 17.7132 80.0818 17.8187 79.7848 18.0295C79.4955 18.2404 79.3508 18.502 79.3508 18.8144ZM80.7464 14.6441C81.5438 14.6441 82.1732 14.8588 82.6345 15.2884C83.0958 15.7101 83.3264 16.2919 83.3264 17.0338V20.5715H82.2944V19.7749H82.2475C81.8018 20.4309 81.2077 20.7589 80.4649 20.7589C79.8317 20.7589 79.3 20.5715 78.87 20.1967C78.4478 19.8218 78.2368 19.3532 78.2368 18.7909C78.2368 18.1974 78.4596 17.7249 78.9052 17.3735C79.3587 17.0221 79.9607 16.8464 80.7112 16.8464C81.3523 16.8464 81.88 16.9635 82.2944 17.1978V16.9518C82.2944 16.5769 82.1458 16.2607 81.8488 16.0029C81.5517 15.7374 81.2038 15.6047 80.805 15.6047C80.203 15.6047 79.7261 15.8585 79.3743 16.3661L78.4244 15.7687C78.9482 15.0189 79.7222 14.6441 80.7464 14.6441Z" fill="white"/>
<path d="M91.2747 20.6652C90.8056 20.6652 90.4147 20.5208 90.102 20.2318C89.7971 19.9428 89.6407 19.5407 89.6329 19.0252V15.8155H88.6244V14.8315H89.6329V13.0744H90.7118V14.8315H92.1191V15.8155H90.7118V18.6738C90.7118 19.0565 90.7861 19.3181 90.9346 19.4587C91.0832 19.5914 91.2513 19.6578 91.4389 19.6578C91.5249 19.6578 91.607 19.65 91.6852 19.6344C91.7712 19.6109 91.8494 19.5836 91.9197 19.5524L92.2598 20.5129C91.9784 20.6145 91.65 20.6652 91.2747 20.6652ZM84.5433 14.8315H85.5753V15.7687H85.6222C85.9427 15.0346 86.6034 14.6675 87.6041 14.6675L87.8269 14.6909V15.8155L87.3461 15.7687C86.8457 15.7687 86.4314 15.9248 86.103 16.2372C85.7825 16.5418 85.6222 16.9323 85.6222 17.4087V20.5715H84.5433V14.8315Z" fill="white"/>
<path d="M93.2128 14.8315H94.2448V15.6281H94.2917C94.4558 15.3469 94.706 15.1127 95.0422 14.9252C95.3862 14.7378 95.7419 14.6441 96.1094 14.6441C96.813 14.6441 97.3525 14.8471 97.7278 15.2532C98.1108 15.6515 98.3024 16.2216 98.3024 16.9635V20.5715H97.2235V17.0338C97.2 16.0967 96.727 15.6281 95.8045 15.6281C95.3745 15.6281 95.0148 15.8038 94.7256 16.1552C94.4363 16.4988 94.2917 16.9127 94.2917 17.3969V20.5715H93.2128V14.8315Z" fill="white"/>
<path d="M102.149 20.7589C101.304 20.7589 100.609 20.47 100.061 19.8921C99.5141 19.3142 99.2405 18.584 99.2405 17.7015C99.2405 16.8268 99.5063 16.1006 100.038 15.5227C100.57 14.9369 101.25 14.6441 102.078 14.6441C102.931 14.6441 103.607 14.9213 104.107 15.4758C104.615 16.0225 104.87 16.7917 104.87 17.7835L104.858 17.9007H100.343C100.358 18.4629 100.546 18.9159 100.906 19.2595C101.265 19.6031 101.695 19.7749 102.196 19.7749C102.884 19.7749 103.423 19.4313 103.814 18.7441L104.776 19.2127C104.518 19.6968 104.158 20.0756 103.697 20.3489C103.243 20.6223 102.727 20.7589 102.149 20.7589ZM100.425 17.0104H103.72C103.689 16.6121 103.525 16.2841 103.228 16.0264C102.938 15.7608 102.548 15.6281 102.055 15.6281C101.648 15.6281 101.297 15.753 101 16.0029C100.71 16.2528 100.519 16.5887 100.425 17.0104Z" fill="white"/>
<path d="M106.935 20.5715H105.856V14.8315H106.888V15.7687H106.935C107.045 15.4641 107.267 15.2064 107.604 14.9955C107.948 14.7768 108.284 14.6675 108.612 14.6675C108.925 14.6675 109.191 14.7144 109.41 14.8081L109.081 15.8507C108.948 15.796 108.737 15.7687 108.448 15.7687C108.041 15.7687 107.686 15.9327 107.381 16.2607C107.084 16.5887 106.935 16.9713 106.935 17.4087V20.5715Z" fill="white"/>
<path d="M54.4926 56.3294C54.4926 59.7001 51.8133 62.1839 48.5251 62.1839C45.237 62.1839 42.5576 59.7001 42.5576 56.3294C42.5576 52.9349 45.237 50.4749 48.5251 50.4749C51.8133 50.4749 54.4926 52.9349 54.4926 56.3294ZM51.8803 56.3294C51.8803 54.223 50.3274 52.7818 48.5251 52.7818C46.7228 52.7818 45.1699 54.223 45.1699 56.3294C45.1699 58.4146 46.7228 59.8769 48.5251 59.8769C50.3274 59.8769 51.8803 58.412 51.8803 56.3294Z" fill="#EA4335"/>
<path d="M67.3676 56.3294C67.3676 59.7001 64.6883 62.1839 61.4001 62.1839C58.112 62.1839 55.4326 59.7001 55.4326 56.3294C55.4326 52.9376 58.112 50.4749 61.4001 50.4749C64.6883 50.4749 67.3676 52.9349 67.3676 56.3294ZM64.7553 56.3294C64.7553 54.223 63.2024 52.7818 61.4001 52.7818C59.5978 52.7818 58.0449 54.223 58.0449 56.3294C58.0449 58.4146 59.5978 59.8769 61.4001 59.8769C63.2024 59.8769 64.7553 58.412 64.7553 56.3294Z" fill="#FBBC05"/>
<path d="M79.7047 50.8286V61.3392C79.7047 65.6628 77.1139 67.4287 74.051 67.4287C71.1679 67.4287 69.4326 65.5308 68.7782 63.9788L71.0525 63.047C71.4575 63.9999 72.4499 65.1243 74.0484 65.1243C76.0089 65.1243 77.2239 63.9339 77.2239 61.6929V60.8509H77.1327C76.548 61.561 75.4216 62.1812 74.0001 62.1812C71.0257 62.1812 68.3008 59.6314 68.3008 56.3505C68.3008 53.0458 71.0257 50.4749 74.0001 50.4749C75.4189 50.4749 76.5453 51.0951 77.1327 51.7841H77.2239V50.8312H79.7047V50.8286ZM77.4089 56.3505C77.4089 54.289 76.0116 52.7818 74.2334 52.7818C72.4311 52.7818 70.9211 54.289 70.9211 56.3505C70.9211 58.3909 72.4311 59.8769 74.2334 59.8769C76.0116 59.8769 77.4089 58.3909 77.4089 56.3505Z" fill="#4285F4"/>
<path d="M83.795 44.6677V61.8248H81.2471V44.6677H83.795Z" fill="#34A853"/>
<path d="M93.7235 58.2564L95.7511 59.5868C95.0967 60.5396 93.5197 62.1814 90.7947 62.1814C87.4154 62.1814 84.8916 59.6105 84.8916 56.3269C84.8916 52.8454 87.4368 50.4724 90.5024 50.4724C93.5894 50.4724 95.0994 52.8902 95.5929 54.1968L95.8637 54.862L87.9116 58.1033C88.5204 59.2779 89.4671 59.8771 90.7947 59.8771C92.125 59.8771 93.0476 59.2331 93.7235 58.2564ZM87.4824 56.1501L92.7982 53.9777C92.5059 53.2466 91.6262 52.7371 90.5909 52.7371C89.2633 52.7371 87.4154 53.8906 87.4824 56.1501Z" fill="#EA4335"/>
<path d="M32.9142 54.8063V52.3225H41.4189C41.502 52.7554 41.545 53.2675 41.545 53.8218C41.545 55.6853 41.0273 57.9896 39.3591 59.6314C37.7365 61.2943 35.6633 62.1812 32.9169 62.1812C27.8264 62.1812 23.5459 58.1005 23.5459 53.0906C23.5459 48.0807 27.8264 44 32.9169 44C35.733 44 37.7392 45.0875 39.2465 46.5049L37.4656 48.2576C36.3847 47.2598 34.9204 46.4838 32.9142 46.4838C29.1969 46.4838 26.2896 49.4322 26.2896 53.0906C26.2896 56.749 29.1969 59.6974 32.9142 59.6974C35.3253 59.6974 36.6985 58.7445 37.5782 57.8787C38.2917 57.1766 38.761 56.1736 38.9461 54.8037L32.9142 54.8063Z" fill="#4285F4"/>
<path d="M107.4 62.4967C106.261 62.5166 105.129 62.3033 104.073 61.8695C103.017 61.4358 102.059 60.7905 101.255 59.9725C100.452 59.1545 99.8203 58.1806 99.398 57.1093C98.9758 56.038 98.7717 54.8914 98.7982 53.7383C98.7717 52.5852 98.9758 51.4386 99.398 50.3673C99.8203 49.296 100.452 48.3221 101.255 47.5041C102.059 46.6861 103.017 46.0408 104.073 45.6071C105.129 45.1733 106.261 44.96 107.4 44.9799C108.553 44.9434 109.7 45.1711 110.754 45.6461C111.808 46.121 112.742 46.8309 113.487 47.7227L112.009 49.1773C111.462 48.481 110.761 47.9253 109.961 47.5552C109.162 47.1851 108.288 47.0111 107.41 47.0474C106.565 47.0281 105.725 47.182 104.94 47.4998C104.155 47.8176 103.441 48.2928 102.842 48.8967C102.22 49.5305 101.733 50.2878 101.414 51.121C101.094 51.9542 100.948 52.8453 100.985 53.7383C100.948 54.6313 101.094 55.5224 101.414 56.3556C101.733 57.1888 102.22 57.9461 102.842 58.5799C103.441 59.1838 104.155 59.659 104.94 59.9768C105.725 60.2946 106.565 60.4485 107.41 60.4292C108.391 60.4403 109.362 60.2275 110.251 59.8066C111.139 59.3857 111.923 58.7676 112.543 57.998L114.021 59.4941C113.247 60.4309 112.275 61.18 111.177 61.6863C109.994 62.2393 108.703 62.5163 107.4 62.4967Z" fill="#8B8B8B"/>
<path d="M117.993 62.1222H115.868V45.343H117.993V62.1222Z" fill="#8B8B8B"/>
<path d="M121.462 52.0236C122.575 50.9045 124.08 50.2764 125.65 50.2764C127.219 50.2764 128.724 50.9045 129.838 52.0236C130.382 52.6055 130.807 53.2906 131.089 54.0394C131.371 54.7883 131.504 55.5863 131.48 56.3873C131.504 57.1883 131.371 57.9862 131.089 58.7351C130.807 59.484 130.382 60.1691 129.838 60.7509C128.724 61.8701 127.219 62.4982 125.65 62.4982C124.08 62.4982 122.575 61.8701 121.462 60.7509C120.917 60.1691 120.492 59.484 120.21 58.7351C119.928 57.9862 119.795 57.1883 119.819 56.3873C119.795 55.5863 119.928 54.7883 120.21 54.0394C120.492 53.2906 120.917 52.6055 121.462 52.0236ZM123.042 59.4003C123.377 59.7584 123.781 60.0436 124.228 60.2386C124.675 60.4335 125.157 60.5341 125.644 60.5341C126.132 60.5341 126.614 60.4335 127.061 60.2386C127.508 60.0436 127.912 59.7584 128.247 59.4003C128.618 58.9969 128.906 58.5228 129.095 58.0055C129.283 57.4882 129.368 56.9381 129.345 56.3873C129.368 55.8364 129.283 55.2863 129.095 54.7691C128.906 54.2518 128.618 53.7777 128.247 53.3743C127.912 53.0162 127.508 52.7309 127.061 52.536C126.614 52.341 126.132 52.2405 125.644 52.2405C125.157 52.2405 124.675 52.341 124.228 52.536C123.781 52.7309 123.377 53.0162 123.042 53.3743C122.671 53.7777 122.383 54.2518 122.194 54.7691C122.005 55.2863 121.92 55.8364 121.944 56.3873C121.923 56.9371 122.01 57.4857 122.201 58.0011C122.391 58.5165 122.681 58.9886 123.053 59.3899L123.042 59.4003Z" fill="#8B8B8B"/>
<path d="M143.255 62.1227H141.202V60.5331H141.14C140.775 61.1369 140.258 61.6316 139.642 61.9669C139.002 62.3419 138.276 62.5391 137.537 62.5383C136.938 62.5798 136.336 62.4837 135.778 62.257C135.22 62.0303 134.72 61.679 134.314 61.2292C133.537 60.2337 133.146 58.9846 133.216 57.7175V50.6526H135.341V57.3227C135.341 59.463 136.275 60.5331 138.143 60.5331C138.558 60.5462 138.97 60.4588 139.345 60.278C139.72 60.0973 140.047 59.8286 140.299 59.4941C140.849 58.7877 141.143 57.9108 141.13 57.011V50.6526H143.255V62.1227Z" fill="#8B8B8B"/>
<path d="M150.47 62.4963C149.75 62.4987 149.037 62.343 148.381 62.0399C147.726 61.7367 147.143 61.2934 146.672 60.7404C145.608 59.5507 145.038 57.9914 145.081 56.3872C145.038 54.7829 145.608 53.2236 146.672 52.0339C147.143 51.4809 147.726 51.0376 148.381 50.7345C149.037 50.4314 149.75 50.2757 150.47 50.2781C151.278 50.2652 152.076 50.4581 152.79 50.8391C153.418 51.1589 153.95 51.6433 154.33 52.2417H154.422L154.33 50.6521V45.343H156.455V62.1222H154.402V60.5326H154.309C153.929 61.1311 153.398 61.6154 152.77 61.9352C152.061 62.3129 151.271 62.5057 150.47 62.4963ZM150.819 60.5326C151.3 60.5397 151.776 60.4433 152.217 60.2499C152.657 60.0564 153.052 59.7703 153.375 59.4105C154.097 58.5787 154.466 57.4924 154.402 56.3872C154.466 55.2819 154.097 54.1957 153.375 53.3638C153.05 53.0021 152.654 52.7131 152.212 52.5154C151.77 52.3176 151.292 52.2155 150.809 52.2155C150.326 52.2155 149.848 52.3176 149.406 52.5154C148.964 52.7131 148.568 53.0021 148.243 53.3638C147.884 53.7729 147.609 54.2497 147.433 54.7667C147.257 55.2838 147.183 55.8309 147.216 56.3768C147.183 56.9227 147.257 57.4698 147.433 57.9868C147.609 58.5039 147.884 58.9806 148.243 59.3898C148.566 59.756 148.964 60.0475 149.408 60.2447C149.853 60.4419 150.334 60.5401 150.819 60.5326Z" fill="#8B8B8B"/>
<defs>
<filter id="filter0_d" x="0" y="0" width="180" height="90" filterUnits="userSpaceOnUse" color-interpolation-filters="sRGB">
<feFlood flood-opacity="0" result="BackgroundImageFix"/>
<feColorMatrix in="SourceAlpha" type="matrix" values="0 0 0 0 0 0 0 0 0 0 0 0 0 0 0 0 0 0 127 0"/>
<feOffset dy="1"/>
<feGaussianBlur stdDeviation="2"/>
<feColorMatrix type="matrix" values="0 0 0 0 0 0 0 0 0 0 0 0 0 0 0 0 0 0 0.25 0"/>
<feBlend mode="normal" in2="BackgroundImageFix" result="effect1_dropShadow"/>
<feBlend mode="normal" in="SourceGraphic" in2="effect1_dropShadow" result="shape"/>
</filter>
</defs>
</svg>
